<svg width="195" height="55" viewBox="0 0 195 55" fill="none" xmlns="http://www.w3.org/2000/svg">
<rect x="0.5" y="0.8125" width="193.703" height="53" rx="26.5" stroke="white"/>
<path d="M39.4084 28.2148C39.3703 28.8411 39.1989 29.3976 38.8942 29.8843C38.5896 30.3709 38.1643 30.7518 37.6184 31.0269C37.0767 31.3019 36.425 31.4395 35.6633 31.4395C34.8677 31.4395 34.1822 31.2596 33.6066 30.8999C33.0311 30.536 32.5889 30.0197 32.28 29.3511C31.9711 28.6825 31.8166 27.8911 31.8166 26.9771V26.4121C31.8166 25.4938 31.9753 24.7004 32.2927 24.0317C32.6143 23.3631 33.0629 22.8468 33.6384 22.4829C34.2139 22.119 34.8931 21.937 35.676 21.937C36.4546 21.937 37.1105 22.0809 37.6437 22.3687C38.1812 22.6522 38.5959 23.0415 38.8879 23.5366C39.1841 24.0317 39.3618 24.5967 39.4211 25.2314H37.4279C37.3898 24.6898 37.2417 24.2793 36.9836 24C36.7297 23.7165 36.2938 23.5747 35.676 23.5747C35.2655 23.5747 34.9248 23.6742 34.654 23.873C34.3832 24.0719 34.18 24.3809 34.0446 24.7998C33.9092 25.2145 33.8415 25.7477 33.8415 26.3994V26.9771C33.8415 27.616 33.9007 28.145 34.0192 28.564C34.142 28.9829 34.3366 29.2961 34.6032 29.5034C34.8698 29.7065 35.2232 29.8081 35.6633 29.8081C36.0484 29.8081 36.3658 29.751 36.6154 29.6367C36.8651 29.5182 37.0555 29.3405 37.1867 29.1035C37.3179 28.8665 37.3962 28.5703 37.4216 28.2148H39.4084ZM43.2729 31.3125H41.1464L44.5805 22.0703H45.9262L45.7357 23.8223L43.2729 31.3125ZM45.2851 23.8223L45.0756 22.0703H46.4276L49.8808 31.3125H47.7543L45.2851 23.8223ZM47.6908 29.4717H42.7904V27.8594H47.6908V29.4717ZM58.0045 31.3125H53.3644V29.7065H58.0045V31.3125ZM53.9991 31.3125H52.006V22.0703H53.9991V31.3125ZM67.6707 28.2148C67.6326 28.8411 67.4612 29.3976 67.1565 29.8843C66.8519 30.3709 66.4266 30.7518 65.8807 31.0269C65.339 31.3019 64.6873 31.4395 63.9256 31.4395C63.13 31.4395 62.4445 31.2596 61.8689 30.8999C61.2934 30.536 60.8512 30.0197 60.5423 29.3511C60.2334 28.6825 60.0789 27.8911 60.0789 26.9771V26.4121C60.0789 25.4938 60.2376 24.7004 60.555 24.0317C60.8766 23.3631 61.3252 22.8468 61.9007 22.4829C62.4762 22.119 63.1554 21.937 63.9383 21.937C64.7169 21.937 65.3729 22.0809 65.9061 22.3687C66.4435 22.6522 66.8582 23.0415 67.1502 23.5366C67.4464 24.0317 67.6242 24.5967 67.6834 25.2314H65.6902C65.6521 24.6898 65.504 24.2793 65.2459 24C64.992 23.7165 64.5561 23.5747 63.9383 23.5747C63.5278 23.5747 63.1871 23.6742 62.9163 23.873C62.6455 24.0719 62.4423 24.3809 62.3069 24.7998C62.1715 25.2145 62.1038 25.7477 62.1038 26.3994V26.9771C62.1038 27.616 62.1631 28.145 62.2815 28.564C62.4043 28.9829 62.5989 29.2961 62.8655 29.5034C63.1321 29.7065 63.4855 29.8081 63.9256 29.8081C64.3107 29.8081 64.6281 29.751 64.8777 29.6367C65.1274 29.5182 65.3178 29.3405 65.449 29.1035C65.5802 28.8665 65.6585 28.5703 65.6839 28.2148H67.6707ZM77.229 22.0703V28.145C77.229 28.8602 77.0767 29.4632 76.772 29.9541C76.4673 30.445 76.0462 30.8153 75.5088 31.0649C74.9756 31.3146 74.362 31.4395 73.668 31.4395C72.9697 31.4395 72.3498 31.3146 71.8081 31.0649C71.2707 30.8153 70.8496 30.445 70.5449 29.9541C70.2445 29.4632 70.0942 28.8602 70.0942 28.145V22.0703H72.0938V28.145C72.0938 28.5428 72.1551 28.8665 72.2778 29.1162C72.4006 29.3617 72.5804 29.5436 72.8174 29.6621C73.0544 29.7764 73.3379 29.8335 73.668 29.8335C74.0023 29.8335 74.2858 29.7764 74.5186 29.6621C74.7513 29.5436 74.9269 29.3617 75.0454 29.1162C75.1681 28.8665 75.2295 28.5428 75.2295 28.145V22.0703H77.229ZM86.0383 31.3125H81.3981V29.7065H86.0383V31.3125ZM82.0329 31.3125H80.0397V22.0703H82.0329V31.3125ZM89.89 31.3125H87.7636L91.1977 22.0703H92.5434L92.3529 23.8223L89.89 31.3125ZM91.9022 23.8223L91.6928 22.0703H93.0448L96.4979 31.3125H94.3715L91.9022 23.8223ZM94.308 29.4717H89.4076V27.8594H94.308V29.4717ZM102.032 31.3125H100.039V22.0703H102.032V31.3125ZM104.837 23.6826H97.2711V22.0703H104.837V23.6826ZM113.425 31.3125H108.543V29.7065H113.425V31.3125ZM109.184 31.3125H107.185V22.0703H109.184V31.3125ZM112.79 27.3389H108.543V25.7837H112.79V27.3389ZM113.418 23.6826H108.543V22.0703H113.418V23.6826Z" fill="white"/>
<rect x="141.203" y="0.8125" width="53" height="53" rx="26.5" stroke="white"/>
<g clip-path="url(#clip0_5_325)">
<path d="M158.165 36.7007L176.726 18.1404" stroke="white" stroke-width="0.999746"/>
<path d="M163.536 18.342L176.658 18.3404L176.657 31.4629" stroke="white" stroke-width="0.999746"/>
</g>
<defs>
<clipPath id="clip0_5_325">
<rect width="19.2654" height="26.7657" fill="white" transform="translate(165.044 43.5791) rotate(-135)"/>
</clipPath>
</defs>
</svg>
