<svg width="303" height="55" viewBox="0 0 303 55" fill="none" xmlns="http://www.w3.org/2000/svg">
<rect x="1" y="0.796875" width="301.5" height="53" rx="26.5" stroke="#C4C4C4"/>
<path d="M36.0156 32.2969H29.6172V31.4844H36.0156V32.2969ZM29.9062 32.2969H28.9453V20.9219H29.9062V32.2969ZM35.2188 26.8438H29.6172V26.0234H35.2188V26.8438ZM35.9766 21.7422H29.6172V20.9219H35.9766V21.7422ZM39.5188 32.2969H38.5813V23.8438H39.4797L39.5188 25.5938V32.2969ZM38.8938 27.3047C38.9354 26.6432 39.0917 26.0391 39.3625 25.4922C39.6333 24.9453 40.0109 24.5078 40.4953 24.1797C40.9797 23.8516 41.5656 23.6875 42.2531 23.6875C43.076 23.6875 43.7349 23.9193 44.2297 24.3828C44.7245 24.8411 44.9719 25.6042 44.9719 26.6719V32.2969H44.0344V26.7031C44.0344 26.1406 43.9484 25.7005 43.7766 25.3828C43.6047 25.0599 43.3625 24.8307 43.05 24.6953C42.7427 24.5599 42.3859 24.4922 41.9797 24.4922C41.5005 24.4922 41.0943 24.5911 40.7609 24.7891C40.4328 24.9818 40.1646 25.2344 39.9563 25.5469C39.7531 25.8542 39.6021 26.1849 39.5031 26.5391C39.4094 26.8932 39.3573 27.2266 39.3469 27.5391L38.8938 27.3047ZM44.3391 26.8203C44.3755 26.2786 44.5292 25.7682 44.8 25.2891C45.076 24.8099 45.4563 24.4245 45.9406 24.1328C46.4302 23.8359 47.0083 23.6875 47.675 23.6875C48.2635 23.6875 48.7635 23.7943 49.175 24.0078C49.5865 24.2161 49.899 24.5495 50.1125 25.0078C50.3313 25.4609 50.4406 26.0547 50.4406 26.7891V32.2969H49.5031V26.7812C49.5031 26.1823 49.4172 25.7188 49.2453 25.3906C49.0734 25.0573 48.8313 24.8255 48.5188 24.6953C48.2115 24.5599 47.8547 24.4922 47.4484 24.4922C47.037 24.4974 46.6776 24.5729 46.3703 24.7188C46.0682 24.8646 45.813 25.0521 45.6047 25.2812C45.4016 25.5104 45.2453 25.7604 45.1359 26.0312C45.0318 26.2969 44.9745 26.5547 44.9641 26.8047L44.3391 26.8203ZM58.7641 26.4219C58.7641 25.8177 58.5766 25.3411 58.2016 24.9922C57.8266 24.6432 57.2875 24.4688 56.5844 24.4688C56.1469 24.4688 55.7563 24.5469 55.4125 24.7031C55.074 24.8542 54.8057 25.0599 54.6078 25.3203C54.4151 25.5755 54.3188 25.862 54.3188 26.1797L53.3813 26.1719C53.3813 25.7448 53.5167 25.3438 53.7875 24.9688C54.0635 24.5885 54.4438 24.2812 54.9281 24.0469C55.4177 23.8073 55.9828 23.6875 56.6234 23.6875C57.2276 23.6875 57.7589 23.7891 58.2172 23.9922C58.6807 24.1953 59.0427 24.5 59.3031 24.9062C59.5688 25.3125 59.7016 25.8229 59.7016 26.4375V30.5234C59.7016 30.8151 59.7224 31.1172 59.7641 31.4297C59.8109 31.7422 59.876 32 59.9594 32.2031V32.2969H58.9594C58.8969 32.1094 58.8474 31.875 58.8109 31.5938C58.7797 31.3073 58.7641 31.0365 58.7641 30.7812V26.4219ZM58.9984 28.0938H57.1625C56.2094 28.0938 55.462 28.263 54.9203 28.6016C54.3839 28.9349 54.1156 29.3906 54.1156 29.9688C54.1156 30.4271 54.2849 30.8177 54.6234 31.1406C54.9672 31.4635 55.4307 31.625 56.0141 31.625C56.5349 31.625 56.9932 31.5312 57.3891 31.3438C57.7901 31.151 58.1182 30.8958 58.3734 30.5781C58.6339 30.2604 58.8109 29.9167 58.9047 29.5469L59.3109 30.0859C59.2432 30.3464 59.1182 30.6146 58.9359 30.8906C58.7589 31.1615 58.5271 31.4167 58.2406 31.6562C57.9542 31.8906 57.6156 32.0833 57.225 32.2344C56.8396 32.3802 56.4021 32.4531 55.9125 32.4531C55.3604 32.4531 54.8786 32.349 54.4672 32.1406C54.0609 31.9323 53.7432 31.6484 53.5141 31.2891C53.2901 30.9245 53.1781 30.513 53.1781 30.0547C53.1781 29.2214 53.5219 28.5677 54.2094 28.0938C54.9021 27.6146 55.8448 27.375 57.0375 27.375H58.9828L58.9984 28.0938ZM64.0406 32.2969H63.1109V23.8438H64.0406V32.2969ZM62.9469 21.3984C62.9469 21.2214 63.0016 21.0729 63.1109 20.9531C63.2255 20.8281 63.3818 20.7656 63.5797 20.7656C63.7828 20.7656 63.9417 20.8281 64.0563 20.9531C64.1708 21.0729 64.2281 21.2214 64.2281 21.3984C64.2281 21.5703 64.1708 21.7161 64.0563 21.8359C63.9417 21.9557 63.7828 22.0156 63.5797 22.0156C63.3818 22.0156 63.2255 21.9557 63.1109 21.8359C63.0016 21.7161 62.9469 21.5703 62.9469 21.3984ZM68.4344 32.2969H67.5047V20.2969H68.4344V32.2969Z" fill="#C4C4C4"/>
<rect x="249.5" y="0.796875" width="53" height="53" rx="26.5" stroke="white"/>
<g clip-path="url(#clip0_5_406)">
<path d="M266.462 36.6851L285.022 18.1248" stroke="white" stroke-width="0.999746"/>
<path d="M271.833 18.3263L284.955 18.3248L284.954 31.4473" stroke="white" stroke-width="0.999746"/>
</g>
<defs>
<clipPath id="clip0_5_406">
<rect width="19.2655" height="26.7657" fill="white" transform="translate(273.341 43.5635) rotate(-135)"/>
</clipPath>
</defs>
</svg>
